<svg width="329" height="329" viewBox="0 0 329 329" fill="none" xmlns="http://www.w3.org/2000/svg">
<rect width="329" height="329" fill="#1BD741"/>
<path d="M176.318 164.501L226.548 114.268C229.817 111.001 229.817 105.718 226.548 102.451C223.281 99.1831 217.998 99.1831 214.731 102.451L164.499 152.683L114.269 102.451C111 99.1831 105.719 99.1831 102.452 102.451C99.1828 105.718 99.1828 111.001 102.452 114.268L152.682 164.501L102.452 214.734C99.1828 218.001 99.1828 223.284 102.452 226.551C104.08 228.181 106.221 229 108.36 229C110.5 229 112.639 228.181 114.269 226.551L164.499 176.319L214.731 226.551C216.361 228.181 218.5 229 220.64 229C222.779 229 224.918 228.181 226.548 226.551C229.817 223.284 229.817 218.001 226.548 214.734L176.318 164.501Z" fill="white"/>
</svg>
