<svg width="479" height="479" viewBox="0 0 479 479" fill="none" xmlns="http://www.w3.org/2000/svg">
<path d="M364.314 98.7834H114.407C100.948 98.7834 90 109.736 90 123.19V292.792C90 306.246 100.948 317.2 114.407 317.2H198.187V349.921H184.967C176.676 349.921 169.958 356.644 169.958 364.93C169.958 373.215 176.676 379.938 184.967 379.938H293.774C302.064 379.938 308.782 373.215 308.782 364.93C308.782 356.644 302.064 349.921 293.774 349.921H280.554V317.2H364.314C377.773 317.2 388.721 306.246 388.721 292.792V123.19C388.721 109.736 377.773 98.7834 364.314 98.7834ZM328.666 302.192C324.903 302.192 321.865 299.153 321.865 295.401C321.865 291.639 324.904 288.6 328.666 288.6C332.418 288.6 335.456 291.639 335.456 295.401C335.456 299.153 332.418 302.192 328.666 302.192ZM358.681 303.823C354.02 303.823 350.249 300.051 350.249 295.401C350.249 290.74 354.02 286.968 358.681 286.968C363.332 286.968 367.104 290.74 367.104 295.401C367.104 300.051 363.332 303.823 358.681 303.823ZM368.711 278.458H110.01V123.19C110.01 120.768 111.984 118.794 114.407 118.794H364.314C366.738 118.794 368.71 120.768 368.71 123.19V278.458H368.711Z" fill="#020202"/>
</svg>
