<svg width="35" height="35" viewBox="0 0 35 35" fill="none" xmlns="http://www.w3.org/2000/svg">
<path d="M23.2559 4.58936H11.744C10.785 4.58936 10 5.37359 10 6.3334V28.6659C10 29.6257 10.785 30.4107 11.744 30.4107H23.2559C24.215 30.4107 25 29.6272 25 28.6667V6.3334C25 5.37359 24.215 4.58936 23.2559 4.58936ZM15.6586 5.84649H19.3414C19.458 5.84649 19.5524 5.94092 19.5524 6.05822C19.5524 6.17479 19.458 6.26922 19.3414 6.26922H15.6586C15.542 6.26922 15.4476 6.17479 15.4476 6.05822C15.4476 5.94092 15.542 5.84649 15.6586 5.84649ZM17.5 29.5387C17.0182 29.5387 16.628 29.1484 16.628 28.6659C16.628 28.1834 17.0182 27.7939 17.5 27.7939C17.9817 27.7939 18.372 28.1834 18.372 28.6659C18.372 29.1484 17.9817 29.5387 17.5 29.5387ZM23.7864 27.183H11.2136V7.35519H23.7864V27.183Z" fill="black"/>
</svg>
